<svg width="48" height="43" viewBox="0 0 48 43" fill="none" xmlns="http://www.w3.org/2000/svg">
<g clip-path="url(#clip0_558_1780)">
<path opacity="0.4" d="M29.3333 23.9917H13.525L6.625 29.1667C6.50467 29.2564 6.36173 29.3109 6.21218 29.324C6.06264 29.3371 5.9124 29.3083 5.7783 29.2408C5.64421 29.1733 5.53155 29.0698 5.45296 28.9419C5.37437 28.814 5.33295 28.6668 5.33333 28.5167V24C3.91925 23.9987 2.56347 23.4363 1.56356 22.4364C0.563652 21.4365 0.00132384 20.0807 0 18.6667L0 5.33333C0.00132384 3.91925 0.563652 2.56347 1.56356 1.56356C2.56347 0.563652 3.91925 0.00132384 5.33333 0H29.3333C30.7474 0.00132384 32.1032 0.563652 33.1031 1.56356C34.103 2.56347 34.6653 3.91925 34.6667 5.33333V18.6667C34.6666 19.3666 34.5285 20.0597 34.2603 20.7063C33.9921 21.3528 33.5992 21.9402 33.1038 22.4347C32.6085 22.9293 32.0205 23.3213 31.3736 23.5885C30.7266 23.8557 30.0333 23.9927 29.3333 23.9917Z" fill="#FFFCF7"/>
<path d="M48 18.6666V31.9999C47.9987 33.414 47.4363 34.7698 46.4364 35.7697C45.4365 36.7696 44.0807 37.332 42.6667 37.3333H40V41.8583C40.0004 42.0084 39.959 42.1557 39.8804 42.2836C39.8018 42.4115 39.6891 42.5149 39.555 42.5824C39.4209 42.6499 39.2707 42.6787 39.1212 42.6656C38.9716 42.6525 38.8287 42.598 38.7083 42.5083L31.8083 37.3333H21.3333C19.9193 37.332 18.5635 36.7696 17.5636 35.7697C16.5637 34.7698 16.0013 33.414 16 31.9999V26.6666H29.3333C31.4541 26.6633 33.487 25.8194 34.9865 24.3198C36.4861 22.8202 37.33 20.7873 37.3333 18.6666V13.3333H42.6667C44.0807 13.3346 45.4365 13.8969 46.4364 14.8968C47.4363 15.8967 47.9987 17.2525 48 18.6666Z" fill="#FFFCF7"/>
</g>
<defs>
<clipPath id="clip0_558_1780">
<rect width="48" height="42.6667" fill="white"/>
</clipPath>
</defs>
</svg>
