<svg width="48" height="39" viewBox="0 0 48 39" fill="none" xmlns="http://www.w3.org/2000/svg">
<g clip-path="url(#clip0_558_1789)">
<path opacity="0.4" d="M28.4132 11.7037L34.7289 9.08398L38.1489 14.784C38.6362 15.6336 38.7798 16.6376 38.5502 17.5897C37.8752 20.5327 34.3502 22.0147 31.7679 20.4187C30.9316 19.9106 30.3207 19.1023 30.0602 18.159L28.4132 11.7037ZM9.4622 17.5897C10.1372 20.5327 13.6622 22.0147 16.2437 20.4187C17.0805 19.9109 17.6917 19.1025 17.9522 18.159L19.6022 11.709L13.2849 9.08848L9.8672 14.7885C9.38008 15.6365 9.23521 16.6385 9.4622 17.5897Z" fill="#FFFCF7"/>
<path d="M47.9543 32.5193C47.8045 32.1551 47.5842 31.8242 47.306 31.5456C47.0279 31.2669 46.6974 31.0459 46.3336 30.8954C45.9698 30.7448 45.5798 30.6677 45.1861 30.6683C44.7923 30.669 44.4026 30.7475 44.0393 30.8993L42.3826 31.5893L39.4801 23.9482C43.0718 21.3232 44.3393 16.4265 42.0676 12.4898L35.5726 1.20375C35.2805 0.69961 34.8155 0.318488 34.2639 0.131061C33.7122 -0.0563655 33.1113 -0.0373789 32.5726 0.1845L24.0001 3.73875L15.4283 0.1845C15.1373 0.0626763 14.825 -4.09506e-05 14.5096 2.00603e-08C14.0875 0.000270459 13.673 0.11166 13.3076 0.322968C12.9423 0.534276 12.639 0.838052 12.4283 1.20375L5.93406 12.4898C3.66906 16.4265 4.92906 21.3232 8.52156 23.9408L5.61906 31.5818L3.96156 30.8918C3.59826 30.74 3.20854 30.6615 2.81481 30.6608C2.42108 30.6602 2.0311 30.7373 1.66728 30.8879C1.30347 31.0384 0.972993 31.2594 0.694854 31.5381C0.416715 31.8167 0.196397 32.1476 0.0465631 32.5117C0.0156787 32.5846 -0.000474275 32.6629 -0.000965033 32.7421C-0.00145579 32.8213 0.0137254 32.8997 0.0437037 32.973C0.073682 33.0463 0.117865 33.1129 0.173705 33.169C0.229546 33.2251 0.295941 33.2697 0.369063 33.3L12.5408 38.3543C12.6145 38.3848 12.6935 38.4006 12.7733 38.4008C12.8909 38.4007 13.0059 38.3656 13.1034 38.2998C13.2009 38.2341 13.2766 38.1408 13.3208 38.0317C13.6247 37.2965 13.6247 36.4709 13.3209 35.7356C13.0171 35.0004 12.4343 34.4155 11.7001 34.1093L10.0433 33.4193L12.9983 25.65C13.3283 25.6875 13.6583 25.7475 13.9808 25.7475C17.8583 25.7475 21.4358 23.2658 22.4858 19.3515L24.0001 13.6973L25.5158 19.35C26.5658 23.2643 30.1426 25.746 34.0201 25.746C34.3426 25.746 34.6726 25.686 35.0026 25.6485L37.9501 33.4193L36.2926 34.1093C35.9286 34.2603 35.5981 34.4816 35.3197 34.7605C35.0413 35.0394 34.8206 35.3704 34.6702 35.7346C34.5198 36.0987 34.4425 36.489 34.4429 36.883C34.4434 37.277 34.5214 37.6671 34.6726 38.031C34.718 38.1399 34.7945 38.233 34.8926 38.2986C34.9906 38.3642 35.1058 38.3995 35.2238 38.4C35.3024 38.4 35.3802 38.3842 35.4526 38.3535L47.6318 33.3C47.7776 33.2387 47.8933 33.1222 47.9537 32.976C48.0141 32.8298 48.0143 32.6656 47.9543 32.5193ZM17.9543 18.159C17.6938 19.1025 17.0826 19.9109 16.2458 20.4188C13.6658 22.0155 10.1416 20.5328 9.46431 17.5898C9.23628 16.638 9.38063 15.6351 9.86781 14.7863L15.4928 5.41125L20.6641 7.56825L17.9543 18.159ZM38.5501 17.5898C37.8751 20.5328 34.3501 22.0148 31.7678 20.4188C30.9315 19.9106 30.3206 19.1023 30.0601 18.159L27.3571 7.5705L32.5276 5.4135L38.1488 14.7885C38.6349 15.6369 38.7785 16.639 38.5501 17.5898Z" fill="#FFFCF7"/>
</g>
<defs>
<clipPath id="clip0_558_1789">
<rect width="48" height="38.4" fill="white"/>
</clipPath>
</defs>
</svg>
