<svg width="48" height="39" viewBox="0 0 48 39" fill="none" xmlns="http://www.w3.org/2000/svg">
<g clip-path="url(#clip0_558_1786)">
<path opacity="0.4" d="M16.7998 18.5999V9.12591C16.7984 8.7193 16.901 8.31908 17.0979 7.96332C17.2949 7.60757 17.5795 7.3081 17.9248 7.09341L20.4373 5.52591C21.2009 5.05242 22.0813 4.80102 22.9798 4.79991H30.6456L38.3998 0.320906C38.6728 0.163258 38.9742 0.0609392 39.2868 0.0197953C39.5993 -0.0213485 39.9169 -0.000511721 40.2214 0.0811155C40.5259 0.162743 40.8113 0.303561 41.0614 0.495526C41.3115 0.687491 41.5213 0.926842 41.6788 1.19991L47.6788 11.5949C47.9968 12.1459 48.0831 12.8007 47.9185 13.4153C47.754 14.0299 47.3521 14.554 46.8013 14.8724L40.8013 18.3374V16.1999C40.8013 15.086 40.3588 14.0177 39.5712 13.2301C38.7835 12.4424 37.7152 11.9999 36.6013 11.9999H22.7998V18.5999C22.7998 19.3956 22.4837 20.1586 21.9211 20.7212C21.3585 21.2838 20.5955 21.5999 19.7998 21.5999C19.0042 21.5999 18.2411 21.2838 17.6785 20.7212C17.1159 20.1586 16.7998 19.3956 16.7998 18.5999Z" fill="#FFFCF7"/>
<path d="M0.323943 26.8035C0.165609 26.531 0.0626589 26.2298 0.0210001 25.9174C-0.0206587 25.6049 -0.000205663 25.2873 0.0811854 24.9828C0.162577 24.6783 0.303303 24.3928 0.495289 24.1428C0.687275 23.8929 0.926741 23.6832 1.19994 23.526L7.19995 20.061V16.5135C7.20016 15.6852 7.41518 14.8712 7.824 14.1508C8.23281 13.4304 8.82146 12.8284 9.53245 12.4035L14.3992 9.47852V18.6C14.3992 20.0322 14.9681 21.4057 15.9808 22.4184C16.9935 23.4311 18.367 24 19.7992 24C21.2314 24 22.6049 23.4311 23.6176 22.4184C24.6303 21.4057 25.1992 20.0322 25.1992 18.6V14.4H36.6C36.8365 14.3994 37.0708 14.4456 37.2895 14.5358C37.5081 14.6261 37.7068 14.7586 37.8741 14.9259C38.0413 15.0932 38.1739 15.2918 38.2642 15.5105C38.3544 15.7291 38.4006 15.9635 38.4 16.2V19.8C38.4006 20.0366 38.3544 20.2709 38.2642 20.4895C38.1739 20.7082 38.0413 20.9069 37.8741 21.0741C37.7068 21.2414 37.5081 21.374 37.2895 21.4642C37.0708 21.5545 36.8365 21.6006 36.6 21.6H36V26.4C36 27.0365 35.7471 27.647 35.297 28.0971C34.8469 28.5472 34.2365 28.8 33.6 28.8H32.4C32.3988 30.0727 31.8927 31.2929 30.9928 32.1928C30.0928 33.0927 28.8726 33.5988 27.6 33.6H17.3557L9.59995 38.076C9.04922 38.3937 8.39495 38.4799 7.78075 38.3156C7.16655 38.1514 6.64261 37.7502 6.32395 37.2L0.323943 26.8035Z" fill="#FFFCF7"/>
</g>
<defs>
<clipPath id="clip0_558_1786">
<rect width="48" height="38.4" fill="white"/>
</clipPath>
</defs>
</svg>
