<svg width="33" height="48" viewBox="0 0 33 48" fill="none" xmlns="http://www.w3.org/2000/svg">
<g clip-path="url(#clip0_558_1774)">
<path opacity="0.4" d="M16.4485 0.00011464C6.88502 0.0291771 1.59614e-05 7.78136 1.59614e-05 16.5001C-0.00555333 20.4947 1.44648 24.3542 4.08377 27.3545C5.63252 29.1217 8.05502 32.8126 8.97846 35.9279C8.97846 35.9523 8.98502 35.9767 8.98877 36.001H24.0113C24.0113 35.9767 24.0178 35.9532 24.0216 35.9279C24.945 32.8135 27.3675 29.1217 28.9163 27.3545C31.0072 24.9667 32.3646 22.0263 32.8257 18.8861C33.2867 15.7459 32.8317 12.5393 31.5154 9.6513C30.1991 6.76327 28.0773 4.31646 25.4047 2.60453C22.7321 0.892599 19.6223 -0.0117175 16.4485 0.00011464ZM16.5 9.00011C14.5116 9.00235 12.6052 9.79324 11.1992 11.1993C9.79315 12.6053 9.00225 14.5117 9.00002 16.5001C9.00002 16.8979 8.84198 17.2795 8.56068 17.5608C8.27937 17.8421 7.89784 18.0001 7.50002 18.0001C7.10219 18.0001 6.72066 17.8421 6.43936 17.5608C6.15805 17.2795 6.00002 16.8979 6.00002 16.5001C6.003 13.7163 7.1102 11.0473 9.07869 9.07878C11.0472 7.1103 13.7162 6.00309 16.5 6.00011C16.8978 6.00011 17.2794 6.15815 17.5607 6.43945C17.842 6.72076 18 7.10229 18 7.50011C18 7.89794 17.842 8.27947 17.5607 8.56077C17.2794 8.84208 16.8978 9.00011 16.5 9.00011Z" fill="#FFFCF7"/>
<path d="M9.00562 42.5953L9 39H24V42.5953C23.9972 43.1847 23.8208 43.7602 23.4928 44.25L21.8906 46.6622C21.6168 47.0737 21.2455 47.4111 20.8098 47.6445C20.374 47.8779 19.8874 48 19.3931 48H13.6078C13.1134 47.9999 12.6268 47.8776 12.191 47.6441C11.7553 47.4105 11.3841 47.0729 11.1103 46.6613L9.50812 44.25C9.18184 43.7597 9.00708 43.1842 9.00562 42.5953Z" fill="#FFFCF7"/>
</g>
<defs>
<clipPath id="clip0_558_1774">
<rect width="33" height="48" fill="white"/>
</clipPath>
</defs>
</svg>
