<svg width="48" height="39" viewBox="0 0 48 39" fill="none" xmlns="http://www.w3.org/2000/svg">
<g clip-path="url(#clip0_558_1777)">
<path opacity="0.4" d="M35.0355 8.86136C35.1894 8.2017 35.1914 7.51569 35.0413 6.85515C34.8913 6.19461 34.5931 5.57681 34.1692 5.0484C33.7454 4.51999 33.2071 4.09479 32.5949 3.80492C31.9827 3.51504 31.3126 3.36807 30.6352 3.37511C30.582 3.37511 30.5332 3.38861 30.48 3.39086C30.2077 2.3274 29.5569 1.39977 28.6496 0.781808C27.7422 0.16385 26.6407 -0.102008 25.5514 0.0340626C24.4621 0.170133 23.4598 0.698791 22.7324 1.52095C22.005 2.34312 21.6024 3.40234 21.6 4.50011V28.8001C22.548 24.5146 26.4 21.1254 30.7815 20.4834C31.2448 20.4207 31.7121 20.3929 32.1795 20.4001H36V19.2601C35.9978 18.5495 36.2022 17.8536 36.5884 17.257C36.9745 16.6605 37.5258 16.189 38.175 15.9001C38.3857 15.3196 38.538 14.7129 38.538 14.0596C38.5358 12.9434 38.2016 11.8531 37.5779 10.9274C36.9542 10.0017 36.0692 9.28253 35.0355 8.86136ZM19.2 4.50011C19.1976 3.40234 18.795 2.34312 18.0676 1.52095C17.3402 0.698791 16.3379 0.170133 15.2486 0.0340626C14.1593 -0.102008 13.0578 0.16385 12.1504 0.781808C11.2431 1.39977 10.5923 2.3274 10.32 3.39086C10.2675 3.39086 10.218 3.37511 10.1647 3.37511C8.96902 3.37292 7.82138 3.84577 6.97425 4.68966C6.12712 5.53355 5.64988 6.67937 5.6475 7.87511C5.6496 8.20744 5.68884 8.53849 5.7645 8.86211C4.7299 9.28296 3.844 10.0023 3.21971 10.9285C2.59541 11.8546 2.26097 12.9457 2.259 14.0626C2.26479 14.9154 2.46702 15.7554 2.85 16.5174C1.15575 17.4924 0 19.2924 0 21.3751C0.00166726 22.4893 0.334161 23.5778 0.955316 24.5027C1.57647 25.4277 2.45831 26.1473 3.489 26.5704C3.33984 27.3068 3.35684 28.0673 3.53875 28.7963C3.72067 29.5254 4.06292 30.2047 4.54058 30.7847C5.01825 31.3648 5.61928 31.831 6.29991 32.1493C6.98053 32.4677 7.72361 32.6302 8.475 32.6251C8.75991 32.6207 9.04394 32.5921 9.324 32.5396C9.70837 33.677 10.4838 34.6411 11.5122 35.2604C12.5407 35.8798 13.7555 36.1142 14.9406 35.922C16.1257 35.7297 17.2041 35.1233 17.984 34.2106C18.764 33.2979 19.1949 32.1381 19.2 30.9376V4.50011Z" fill="#FFFCF7"/>
<path d="M47.6249 27.3158L40.4249 34.455C39.6659 35.205 38.3999 34.65 38.3999 33.5393V30H33.5999C28.6612 30 28.4047 35.1713 29.0789 37.164C29.3617 37.9988 28.4789 38.7315 27.7424 38.2425C25.1174 36.495 23.5364 33.2175 24.1207 29.7173C24.7087 26.1983 27.5999 23.3753 31.1294 22.8578C31.5524 22.8067 31.9786 22.7874 32.4044 22.8H38.3999V19.2608C38.3999 18.1493 39.6659 17.5935 40.4249 18.345L47.6249 25.4843C47.8657 25.7282 48.0008 26.0572 48.0008 26.4C48.0008 26.7428 47.8657 27.0718 47.6249 27.3158Z" fill="#FFFCF7"/>
</g>
<defs>
<clipPath id="clip0_558_1777">
<rect width="48" height="38.4" fill="white"/>
</clipPath>
</defs>
</svg>
