<svg width="47" height="48" viewBox="0 0 47 48" fill="none" xmlns="http://www.w3.org/2000/svg">
<g clip-path="url(#clip0_558_1783)">
<path opacity="0.4" d="M23.25 0.75C10.4062 0.75 0 11.1562 0 24C0 36.8438 10.4062 47.25 23.25 47.25C36.0938 47.25 46.5 36.8438 46.5 24C46.5 11.1562 36.0938 0.75 23.25 0.75ZM15.75 16.5C16.3433 16.5 16.9234 16.6759 17.4167 17.0056C17.9101 17.3352 18.2946 17.8038 18.5216 18.3519C18.7487 18.9001 18.8081 19.5033 18.6924 20.0853C18.5766 20.6672 18.2909 21.2018 17.8713 21.6213C17.4518 22.0409 16.9172 22.3266 16.3353 22.4424C15.7533 22.5581 15.1501 22.4987 14.6019 22.2716C14.0538 22.0446 13.5852 21.6601 13.2556 21.1667C12.9259 20.6734 12.75 20.0933 12.75 19.5C12.75 18.7044 13.0661 17.9413 13.6287 17.3787C14.1913 16.8161 14.9544 16.5 15.75 16.5ZM34.0125 32.4656C32.6966 34.0422 31.0503 35.3102 29.1902 36.1801C27.33 37.05 25.3013 37.5004 23.2478 37.4995C21.1943 37.4986 19.166 37.0464 17.3066 36.1749C15.4472 35.3034 13.802 34.0339 12.4875 32.4563C11.2219 30.9281 13.5375 29.0156 14.7938 30.5437C15.8276 31.7822 17.1208 32.7784 18.582 33.462C20.0433 34.1456 21.6368 34.4999 23.25 34.4999C24.8632 34.4999 26.4567 34.1456 27.918 33.462C29.3792 32.7784 30.6724 31.7822 31.7063 30.5437C32.9813 29.025 35.2781 30.9375 34.0125 32.4656ZM34.5188 21.8438L33.6094 21.0469C32.2219 19.8094 29.2781 19.8094 27.8906 21.0469L27 21.8438C26.2219 22.5375 24.975 21.8813 25.1438 20.8312C25.5188 18.4688 28.35 16.8844 30.7594 16.8844C33.1688 16.8844 36 18.4688 36.375 20.8312C36.5344 21.8719 35.3063 22.5469 34.5188 21.8438Z" fill="#FFFCF7"/>
<path d="M36.375 20.8313C36 18.4687 33.1687 16.8844 30.7594 16.8844C28.35 16.8844 25.5187 18.4687 25.1437 20.8313C24.975 21.8812 26.2219 22.5375 27 21.8438L27.8906 21.0469C29.2781 19.8094 32.2219 19.8094 33.6094 21.0469L34.5187 21.8438C35.3062 22.5469 36.5344 21.8719 36.375 20.8313ZM15.75 16.5C15.1567 16.5 14.5766 16.6759 14.0833 17.0056C13.5899 17.3352 13.2054 17.8038 12.9784 18.352C12.7513 18.9001 12.6919 19.5033 12.8076 20.0853C12.9234 20.6672 13.2091 21.2018 13.6287 21.6213C14.0482 22.0409 14.5828 22.3266 15.1647 22.4424C15.7467 22.5581 16.3499 22.4987 16.898 22.2716C17.4462 22.0446 17.9148 21.6601 18.2444 21.1667C18.5741 20.6734 18.75 20.0933 18.75 19.5C18.75 18.7044 18.4339 17.9413 17.8713 17.3787C17.3087 16.8161 16.5456 16.5 15.75 16.5Z" fill="#FFFCF7"/>
</g>
<defs>
<clipPath id="clip0_558_1783">
<rect width="46.5" height="48" fill="white"/>
</clipPath>
</defs>
</svg>
